<svg xmlns="http://www.w3.org/2000/svg" xmlns:xlink="http://www.w3.org/1999/xlink" width="2000"
    zoomAndPan="magnify" viewBox="0 0 1500 1499.999933" height="2000"
    preserveAspectRatio="xMidYMid meet" version="1.0">
    <defs>
        <clipPath id="f6363d41da">
            <path d="M 949 732 L 1250 732 L 1250 1032 L 949 1032 Z M 949 732 " clip-rule="nonzero" />
        </clipPath>
        <clipPath id="bdc15cc09c">
            <path
                d="M 1099.5 703.476562 L 1277.941406 881.917969 L 1098.800781 1061.054688 L 920.359375 882.613281 Z M 1099.5 703.476562 "
                clip-rule="nonzero" />
        </clipPath>
        <clipPath id="87583bae46">
            <path
                d="M 1148.289062 752.265625 L 1229.152344 833.128906 C 1256.097656 860.074219 1256.097656 903.761719 1229.152344 930.707031 L 1148.214844 1011.644531 C 1121.269531 1038.589844 1077.578125 1038.589844 1050.632812 1011.644531 L 969.773438 930.785156 C 942.824219 903.835938 942.824219 860.148438 969.773438 833.203125 L 1050.710938 752.265625 C 1077.65625 725.320312 1121.34375 725.320312 1148.289062 752.265625 Z M 1148.289062 752.265625 "
                clip-rule="nonzero" />
        </clipPath>
        <clipPath id="baa5c2307d">
            <path d="M 0 0 L 301 0 L 301 300 L 0 300 Z M 0 0 " clip-rule="nonzero" />
        </clipPath>
        <clipPath id="a77af7885d">
            <path
                d="M 150.5 -28.523438 L 328.941406 149.917969 L 149.800781 329.054688 L -28.640625 150.613281 Z M 150.5 -28.523438 "
                clip-rule="nonzero" />
        </clipPath>
        <clipPath id="5c76280794">
            <path
                d="M 199.289062 20.265625 L 280.152344 101.128906 C 307.097656 128.074219 307.097656 171.761719 280.152344 198.707031 L 199.214844 279.644531 C 172.269531 306.589844 128.578125 306.589844 101.632812 279.644531 L 20.773438 198.785156 C -6.175781 171.835938 -6.175781 128.148438 20.773438 101.203125 L 101.710938 20.265625 C 128.65625 -6.679688 172.34375 -6.679688 199.289062 20.265625 Z M 199.289062 20.265625 "
                clip-rule="nonzero" />
        </clipPath>
        <clipPath id="7859542b15">
            <rect x="0" width="301" y="0" height="300" />
        </clipPath>
        <clipPath id="76350ecf11">
            <path
                d="M 667.238281 297.195312 L 847.019531 297.195312 L 847.019531 1202.804688 L 667.238281 1202.804688 Z M 667.238281 297.195312 "
                clip-rule="nonzero" />
        </clipPath>
        <clipPath id="7693ecb3e5">
            <path
                d="M 0.238281 0.195312 L 180.019531 0.195312 L 180.019531 905.804688 L 0.238281 905.804688 Z M 0.238281 0.195312 "
                clip-rule="nonzero" />
        </clipPath>
        <clipPath id="6e32ccc45a">
            <rect x="0" width="181" y="0" height="906" />
        </clipPath>
    </defs>
    <rect x="-150" width="1800" fill="none" y="-149.999993" height="1799.99992" fill-opacity="1" />
    <rect x="-150" width="1800" fill="none" y="-149.999993" height="1799.99992" fill-opacity="1" />
    <g clip-path="url(#f6363d41da)">
        <g clip-path="url(#bdc15cc09c)">
            <g clip-path="url(#87583bae46)">
                <g transform="matrix(1, 0, 0, 1, 949, 732)">
                    <g clip-path="url(#7859542b15)">
                        <g clip-path="url(#baa5c2307d)">
                            <g clip-path="url(#a77af7885d)">
                                <g clip-path="url(#5c76280794)">
                                    <path fill="#1a3faa"
                                        d="M 150.5 -28.523438 L 328.941406 149.917969 L 150.5 328.359375 L -27.941406 149.917969 Z M 150.5 -28.523438 "
                                        fill-opacity="1" fill-rule="nonzero" />
                                </g>
                            </g>
                        </g>
                    </g>
                </g>
            </g>
        </g>
    </g>
    <path fill="#e8192c"
        d="M 663.710938 749.289062 C 504.449219 902.660156 350.371094 1050.847656 196.296875 1199.035156 C 195.117188 1198.328125 193.9375 1197.621094 192.996094 1196.914062 C 250.011719 1097.964844 307.023438 999.25 361.210938 905.015625 C 325.398438 872.738281 286.527344 846.585938 258.964844 811.484375 C 178.863281 710.179688 164.253906 596.386719 219.617188 479.769531 C 275.21875 362.445312 372.046875 301.191406 503.035156 299.304688 C 616.355469 297.65625 729.914062 298.835938 845.824219 298.835938 C 845.824219 538.667969 845.824219 777.792969 845.824219 1020.21875 C 873.390625 1020.21875 898.597656 1020.691406 923.804688 1020.21875 C 960.558594 1019.511719 997.78125 1021.867188 1033.828125 1015.976562 C 1102.621094 1004.90625 1148.324219 943.652344 1143.847656 875.566406 C 1139.375 808.1875 1084.480469 753.765625 1015.214844 750.699219 C 971.867188 748.816406 928.519531 750.464844 884.226562 750.464844 C 884.226562 689.210938 884.226562 631.019531 884.226562 572.121094 C 1023.226562 561.285156 1158.457031 563.40625 1255.050781 686.621094 C 1334.679688 788.394531 1349.992188 901.953125 1294.863281 1018.804688 C 1239.5 1136.367188 1142.671875 1198.089844 1012.152344 1200.449219 C 906.136719 1202.332031 800.355469 1200.917969 694.339844 1200.917969 C 686.09375 1200.917969 678.082031 1200.917969 667.480469 1200.917969 C 667.480469 960.378906 667.480469 721.25 667.480469 481.652344 C 605.285156 481.652344 544.972656 476.941406 485.601562 482.832031 C 414.453125 489.898438 366.15625 553.273438 369.925781 623.246094 C 373.695312 691.804688 430.003906 746.929688 501.859375 749.289062 C 553.453125 750.699219 605.046875 749.289062 663.710938 749.289062 Z M 663.710938 749.289062 "
        fill-opacity="1" fill-rule="nonzero" />
    <g clip-path="url(#76350ecf11)">
        <g transform="matrix(1, 0, 0, 1, 667, 297)">
            <g clip-path="url(#6e32ccc45a)">
                <g clip-path="url(#7693ecb3e5)">
                    <path fill="#1a3faa"
                        d="M 0.238281 0.195312 L 180.019531 0.195312 L 180.019531 906.125 L 0.238281 906.125 Z M 0.238281 0.195312 "
                        fill-opacity="1" fill-rule="nonzero" />
                </g>
            </g>
        </g>
    </g>
</svg>